<svg width="1000" height="1000" viewBox="0 0 1000 1000" fill="none" xmlns="http://www.w3.org/2000/svg">
<path fill-rule="evenodd" clip-rule="evenodd" d="M500 1000C776.142 1000 1000 776.142 1000 500C1000 223.858 776.142 0 500 0C223.858 0 0 223.858 0 500C0 776.142 223.858 1000 500 1000Z" fill="#0A0D11"/>
<path fill-rule="evenodd" clip-rule="evenodd" d="M500 984.375C767.513 984.375 984.375 767.513 984.375 500C984.375 232.487 767.513 15.625 500 15.625C232.487 15.625 15.625 232.487 15.625 500C15.625 767.513 232.487 984.375 500 984.375ZM1000 500C1000 776.142 776.142 1000 500 1000C223.858 1000 0 776.142 0 500C0 223.858 223.858 0 500 0C776.142 0 1000 223.858 1000 500Z" fill="#544B40"/>
<path d="M436.545 462.452C431.442 457.713 423.422 463.91 427.432 470.108L490.133 571.45C492.684 575.096 491.591 580.199 487.581 582.386C486.123 583.48 484.665 583.845 483.206 583.845C480.655 583.845 478.103 582.386 476.645 580.199L387.697 449.693C383.687 444.225 374.938 448.6 377.125 455.161L443.107 635.245C444.2 638.89 443.107 642.9 439.461 644.723C438.003 645.452 436.545 646.181 435.087 646.181C431.806 646.181 428.89 643.994 427.796 640.713L343.952 459.536C341.035 452.974 331.193 455.526 332.286 462.817L371.657 683.729C372.021 687.374 370.199 691.02 367.282 692.478C361.352 694.85 353.22 697.696 351.242 688.468L306.039 483.96C304.581 477.034 294.374 478.128 294.009 485.054L296.561 709.247C296.561 713.257 293.645 716.538 289.635 717.267C285.99 717.996 281.98 718.36 277.97 718.725C273.231 719.089 269.221 715.444 268.856 711.069L264.117 510.207C263.752 502.552 253.545 501.823 252.087 509.114L211.988 708.882C211.259 713.257 207.249 716.173 202.874 715.444C194.49 714.35 186.47 712.528 178.085 710.705C173.711 709.611 171.159 705.237 172.253 700.862L248.077 336.685C252.816 312.626 273.96 295.128 299.113 295.128C313.695 295.128 326.818 300.96 336.296 310.074L563.77 537.548C568.874 542.287 576.894 536.09 572.884 529.892L510.182 428.55C507.631 424.904 508.724 419.801 512.734 417.614C514.192 416.52 515.651 416.155 517.109 416.155C519.661 416.155 522.212 417.614 523.67 419.801L612.619 550.307C616.629 555.775 625.378 551.4 623.19 544.839L557.208 364.755C556.115 361.11 557.573 357.1 560.854 355.277C562.312 354.548 563.77 353.819 565.228 353.819C568.509 353.819 571.425 356.006 572.519 359.287L656.364 540.464C659.28 547.026 669.123 544.474 668.029 537.183L628.658 316.271C628.294 312.626 630.117 308.98 633.033 307.522C638.963 305.15 647.095 302.304 649.073 311.532L694.276 516.04C695.734 522.966 705.941 521.872 706.306 514.946L703.754 290.753C703.754 286.743 706.67 283.462 710.68 282.733C714.326 282.004 718.336 281.64 722.346 281.275C727.085 280.911 731.095 284.556 731.459 288.931L736.198 489.793C736.563 497.448 746.77 498.177 748.228 490.886L788.328 291.118C789.057 286.743 793.067 283.827 797.441 284.556C805.826 285.65 813.845 287.472 822.23 289.295C826.604 290.389 829.156 294.763 828.063 299.138L752.238 663.315C747.499 687.374 726.356 704.872 701.202 704.872C686.621 704.872 673.497 699.04 664.019 689.926L436.545 462.452Z" fill="#E1D8C7"/>
</svg>
