<svg width="24" height="24" viewBox="0 0 24 24" fill="none" xmlns="http://www.w3.org/2000/svg"><path fill-rule="evenodd" clip-rule="evenodd" d="M9.372 3.768a5.997 5.997 0 0 0-5.539 9.035.75.75 0 0 1 .082.598l-.573 2.007 2.007-.573a.75.75 0 0 1 .598.081A5.997 5.997 0 1 0 9.372 3.768ZM5.46 16.363a7.497 7.497 0 1 0-3.073-3.072l-.58 2.03.718.205-.718-.205a1.313 1.313 0 0 0 1.623 1.622l-.186-.649.186.65 2.03-.58Z" fill="#4A93B5"/><path fill-rule="evenodd" clip-rule="evenodd" d="M14.62 7.469a.75.75 0 0 1 .79-.708 7.501 7.501 0 0 1 6.203 11.03l.58 2.03a1.313 1.313 0 0 1-1.623 1.622l-2.03-.58a7.504 7.504 0 0 1-10.617-4.124.75.75 0 0 1 1.414-.498 6.004 6.004 0 0 0 8.716 3.175.75.75 0 0 1 .598-.082l2.006.574-.573-2.007a.75.75 0 0 1 .082-.598 6.002 6.002 0 0 0-4.838-9.044.75.75 0 0 1-.708-.79Z" fill="#4A93B5"/><path d="M9 13.75A.875.875 0 1 0 9 12a.875.875 0 0 0 0 1.75Z" fill="#4A93B5"/><path fill-rule="evenodd" clip-rule="evenodd" d="M7.995 5.947a2.66 2.66 0 0 1 2.861.56 2.561 2.561 0 0 1 .569 2.821 2.596 2.596 0 0 1-.967 1.16 2.645 2.645 0 0 1-.875.372v.065A.58.58 0 0 1 9 11.5a.58.58 0 0 1-.583-.575v-.575a.57.57 0 0 1 .17-.407A.588.588 0 0 1 9 9.775c.288 0 .57-.084.81-.242.24-.158.427-.383.537-.645a1.418 1.418 0 0 0-.316-1.567 1.478 1.478 0 0 0-1.59-.312 1.454 1.454 0 0 0-.654.53c-.16.236-.245.514-.245.799a.58.58 0 0 1-.584.575.58.58 0 0 1-.583-.575c0-.512.154-1.013.442-1.438a2.617 2.617 0 0 1 1.178-.953Z" fill="#4A93B5"/></svg>