<svg width="24" height="24" viewBox="0 0 24 24" fill="none" xmlns="http://www.w3.org/2000/svg"><path fill-rule="evenodd" clip-rule="evenodd" d="M10.124 4.42c-.279.24-.612.49-.996.649-.378.157-.788.21-1.148.233-.235.016-.498.02-.738.023l-.322.007c-.721.02-1.089.109-1.284.304-.195.195-.284.563-.304 1.284a25.92 25.92 0 0 0-.007.322c-.003.24-.007.503-.023.738-.023.36-.076.77-.233 1.148-.159.384-.409.717-.65.996-.165.192-.355.39-.528.571l-.202.212c-.232.247-.41.457-.533.654-.118.192-.156.33-.156.439 0 .108.038.247.156.44.122.197.301.406.533.653l.202.212c.173.18.363.379.529.57.24.28.49.613.649.997.157.379.21.788.233 1.148.016.235.02.498.023.738l.007.322c.02.721.109 1.089.304 1.284.195.195.563.284 1.284.304l.322.007c.24.003.503.007.738.023.36.023.77.076 1.148.233.384.159.717.409.996.65.192.165.39.355.571.528l.212.202c.247.232.457.41.654.533.192.118.33.156.439.156.108 0 .247-.038.44-.156.197-.122.406-.301.653-.533l.212-.202c.18-.173.379-.363.57-.529.28-.24.613-.49.997-.649.379-.157.788-.21 1.148-.233.235-.016.498-.02.738-.023l.322-.007c.721-.02 1.089-.109 1.284-.304.195-.195.284-.563.304-1.285l.007-.322c.003-.239.007-.502.023-.737.023-.36.076-.77.233-1.148.159-.384.409-.717.65-.996.165-.192.355-.39.528-.571l.202-.212c.232-.247.41-.457.533-.654.118-.192.156-.33.156-.439 0-.108-.038-.247-.156-.44a4.37 4.37 0 0 0-.533-.653l-.202-.212c-.173-.18-.364-.379-.529-.57-.24-.28-.49-.613-.649-.997-.157-.378-.21-.788-.233-1.148-.016-.235-.02-.498-.023-.737l-.007-.323c-.02-.721-.109-1.089-.304-1.284-.195-.195-.563-.284-1.285-.304a25.878 25.878 0 0 0-.322-.007 13.817 13.817 0 0 1-.737-.023c-.36-.023-.77-.076-1.148-.233-.384-.159-.717-.409-.996-.65-.192-.165-.39-.355-.571-.528l-.212-.202a4.363 4.363 0 0 0-.654-.533C12.247 3.038 12.11 3 12 3c-.108 0-.247.038-.44.156a4.388 4.388 0 0 0-.653.533l-.212.202c-.18.173-.379.363-.57.529Zm.649-2.54c.338-.209.75-.38 1.227-.38.478 0 .89.171 1.227.38.333.206.634.473.893.715l.259.247c.165.159.315.303.476.442.233.2.424.33.59.399.152.063.367.103.672.123.201.013.395.015.608.018.124.002.254.004.397.008.665.02 1.635.076 2.303.743.667.668.724 1.638.743 2.303.004.143.006.273.008.397.003.214.006.407.019.608.02.305.06.52.122.672l-.693.287.693-.287c.069.166.198.357.4.59.138.161.282.311.44.476l.248.26c.242.258.51.559.715.892.209.338.38.75.38 1.227 0 .478-.171.89-.38 1.227a5.784 5.784 0 0 1-.716.893c-.086.092-.168.177-.246.259-.159.165-.303.315-.442.476-.2.233-.33.424-.399.59-.063.152-.103.367-.122.672-.014.201-.016.395-.02.608a27.26 27.26 0 0 1-.007.397c-.02.665-.076 1.635-.743 2.303-.668.667-1.638.724-2.303.743-.143.004-.273.006-.397.008-.213.003-.407.006-.608.019-.305.02-.52.06-.672.122l-.287-.693.287.693c-.166.069-.357.198-.59.4-.161.138-.311.282-.476.44-.082.08-.167.16-.26.248a5.79 5.79 0 0 1-.892.715c-.338.209-.75.38-1.227.38-.478 0-.89-.171-1.227-.38a5.787 5.787 0 0 1-.893-.716c-.092-.086-.177-.168-.259-.246a11.783 11.783 0 0 0-.476-.442c-.233-.2-.424-.33-.59-.399-.152-.063-.367-.103-.672-.122a11.984 11.984 0 0 0-.608-.02 27.262 27.262 0 0 1-.397-.007c-.665-.02-1.635-.076-2.303-.743-.667-.668-.724-1.638-.743-2.303a28.115 28.115 0 0 1-.008-.397c-.003-.213-.005-.407-.019-.608-.02-.305-.06-.52-.122-.672l.685-.283-.685.283c-.069-.166-.198-.357-.4-.59a11.99 11.99 0 0 0-.44-.476c-.08-.082-.161-.167-.248-.26a5.787 5.787 0 0 1-.715-.892c-.209-.338-.38-.75-.38-1.227 0-.478.171-.89.38-1.227.206-.333.473-.634.715-.893l.247-.259c.159-.165.303-.315.442-.476.2-.233.33-.424.399-.59.063-.152.103-.367.123-.672.013-.201.015-.394.018-.608.002-.124.004-.254.008-.397.02-.665.076-1.635.743-2.303.668-.667 1.638-.724 2.303-.743.143-.004.273-.006.397-.008.214-.003.407-.005.608-.019.305-.02.52-.06.672-.122l.287.693-.287-.693c.166-.069.357-.198.59-.4.161-.138.311-.282.476-.44.082-.08.167-.16.26-.248.258-.242.559-.51.892-.715Z" fill="#BF6069"/><path fill-rule="evenodd" clip-rule="evenodd" d="M12 6.75a.75.75 0 0 1 .75.75v5.25a.75.75 0 0 1-1.5 0V7.5a.75.75 0 0 1 .75-.75Z" fill="#BF6069"/><path d="M12 17.25A1.125 1.125 0 1 0 12 15a1.125 1.125 0 0 0 0 2.25Z" fill="#BF6069"/></svg>