<svg width="24" height="24" viewBox="0 0 24 24" fill="none" xmlns="http://www.w3.org/2000/svg"><path fill-rule="evenodd" clip-rule="evenodd" d="M8.25 9A.75.75 0 0 1 9 8.25h6a.75.75 0 0 1 0 1.5H9A.75.75 0 0 1 8.25 9Zm0 3a.75.75 0 0 1 .75-.75h6a.75.75 0 0 1 0 1.5H9a.75.75 0 0 1-.75-.75Zm0 3a.75.75 0 0 1 .75-.75h3a.75.75 0 0 1 0 1.5H9a.75.75 0 0 1-.75-.75Z" fill="#4776F3"/><path fill-rule="evenodd" clip-rule="evenodd" d="M3.44 3.44A1.5 1.5 0 0 1 4.5 3h15A1.5 1.5 0 0 1 21 4.5v10.19a1.5 1.5 0 0 1-.44 1.06l-4.81 4.81a1.501 1.501 0 0 1-1.06.44H4.5A1.5 1.5 0 0 1 3 19.5v-15c0-.398.158-.78.44-1.06ZM19.5 4.5h-15v15h10.19l4.81-4.81V4.5Z" fill="#4776F3"/><path fill-rule="evenodd" clip-rule="evenodd" d="M14.25 15a.75.75 0 0 1 .75-.75h5.182a.75.75 0 0 1 0 1.5H15.75v4.433a.75.75 0 0 1-1.5 0V15Z" fill="#4776F3"/></svg>