<svg width="24" height="24" viewBox="0 0 24 24" fill="none" xmlns="http://www.w3.org/2000/svg"><path fill-rule="evenodd" clip-rule="evenodd" d="M8.25 9.75A.75.75 0 0 1 9 9h6a.75.75 0 0 1 0 1.5H9a.75.75 0 0 1-.75-.75Zm0 3A.75.75 0 0 1 9 12h6a.75.75 0 0 1 0 1.5H9a.75.75 0 0 1-.75-.75Z" fill="#652D93"/><path fill-rule="evenodd" clip-rule="evenodd" d="M2.69 4.19a1.5 1.5 0 0 1 1.06-.44h16.5a1.5 1.5 0 0 1 1.5 1.5v12a1.5 1.5 0 0 1-1.5 1.5h-5.575l-1.389 2.314a1.499 1.499 0 0 1-2.572 0L9.325 18.75H3.75a1.5 1.5 0 0 1-1.5-1.5v-12c0-.398.158-.78.44-1.06Zm17.56 1.06H3.75v12h5.575a1.5 1.5 0 0 1 1.287.728l-.644.386.644-.386L12 20.292l1.388-2.314.643.386-.643-.386a1.5 1.5 0 0 1 1.287-.728h5.575v-12Z" fill="#652D93"/></svg>