<svg width="24" height="24" viewBox="0 0 24 24" fill="none" xmlns="http://www.w3.org/2000/svg"><path fill-rule="evenodd" clip-rule="evenodd" d="M11.999 2.25a6.75 6.75 0 1 0 0 13.5 6.75 6.75 0 0 0 0-13.5ZM3.749 9a8.25 8.25 0 1 1 16.5 0 8.25 8.25 0 0 1-16.5 0Z" fill="#4E6645"/><path fill-rule="evenodd" clip-rule="evenodd" d="M11.999 5.25a3.75 3.75 0 1 0 0 7.5 3.75 3.75 0 0 0 0-7.5ZM6.749 9a5.25 5.25 0 1 1 10.5 0 5.25 5.25 0 0 1-10.5 0Z" fill="#4E6645"/><path fill-rule="evenodd" clip-rule="evenodd" d="M16.5 14.25a.75.75 0 0 1 .75.75v7.5a.75.75 0 0 1-1.085.671l-4.166-2.082-4.164 2.082a.75.75 0 0 1-1.085-.67V15a.75.75 0 1 1 1.5 0v6.286l3.414-1.707a.75.75 0 0 1 .67 0l3.416 1.707V15a.75.75 0 0 1 .75-.75Z" fill="#4E6645"/></svg>